<svg id="Capa_1" enable-background="new 0 0 512 512" height="512" viewBox="0 0 512 512" width="512" xmlns="http://www.w3.org/2000/svg"><g><g><path d="m417.589 512h-323.178c-17 0-30.782-13.781-30.782-30.782v-434.576c0-17 13.781-30.782 30.782-30.782h323.179c17 0 30.782 13.781 30.782 30.782v434.576c-.001 17.001-13.782 30.782-30.783 30.782z" fill="#a79ba7"/><path d="m417.589 15.861h-30.905c17 0 30.782 13.781 30.782 30.782v434.576c0 17-13.781 30.782-30.782 30.782h30.905c17 0 30.782-13.781 30.782-30.782v-434.577c0-17-13.781-30.781-30.782-30.781z" fill="#918291"/><g><path d="m94.408 474.333v-422.557c0-2.834 2.297-5.131 5.13-5.131h312.924c2.833 0 5.13 2.297 5.13 5.131v349.079l-78.597 78.609h-239.457c-2.833 0-5.13-2.297-5.13-5.131z" fill="#f9f7f8"/><path d="m338.995 479.464v-47.825c0-17.002 13.78-30.784 30.779-30.784h47.818z" fill="#e5e1e5"/></g><g><g><path d="m351.35 106.585h-190.7c-12.746 0-23.116-10.37-23.116-23.118v-21.43c0-12.747 10.37-23.119 23.116-23.119h190.7c12.746 0 23.116 10.371 23.116 23.119v21.43c0 12.747-10.369 23.118-23.116 23.118zm-190.7-52.214c-4.226 0-7.663 3.439-7.663 7.666v21.43c0 4.226 3.438 7.665 7.663 7.665h190.7c4.226 0 7.663-3.439 7.663-7.665v-21.43c0-4.227-3.438-7.666-7.663-7.666z" fill="#cbc4cc"/></g></g><g><path d="m160.65 17.484v28.352c0 9.656 7.827 17.484 17.482 17.484h155.737c9.655 0 17.482-7.828 17.482-17.484v-28.352c-.001-9.656-7.828-17.484-17.483-17.484h-155.736c-9.655 0-17.482 7.828-17.482 17.484z" fill="#b5adb6"/></g><path d="m333.868 0h-30.905c9.655 0 17.482 7.828 17.482 17.484v28.352c0 9.656-7.827 17.484-17.482 17.484h30.905c9.655 0 17.482-7.828 17.482-17.484v-28.352c0-9.656-7.827-17.484-17.482-17.484z" fill="#a79ba7"/></g><g><g><g><path d="m365.814 154.573h-110.2c-4.267 0-7.726-3.459-7.726-7.726 0-4.268 3.459-7.726 7.726-7.726h110.2c4.267 0 7.726 3.459 7.726 7.726.001 4.268-3.459 7.726-7.726 7.726z" fill="#e5e1e5"/></g><g><path d="m365.814 185.479h-110.2c-4.267 0-7.726-3.459-7.726-7.726s3.459-7.726 7.726-7.726h110.2c4.267 0 7.726 3.459 7.726 7.726s-3.459 7.726-7.726 7.726z" fill="#e5e1e5"/></g></g><g><g><path d="m365.814 259.751h-110.2c-4.267 0-7.726-3.459-7.726-7.726s3.459-7.726 7.726-7.726h110.2c4.267 0 7.726 3.459 7.726 7.726s-3.459 7.726-7.726 7.726z" fill="#e5e1e5"/></g><g><path d="m319.456 290.657h-63.842c-4.267 0-7.726-3.459-7.726-7.726s3.459-7.726 7.726-7.726h63.842c4.267 0 7.726 3.459 7.726 7.726s-3.459 7.726-7.726 7.726z" fill="#e5e1e5"/></g></g><g><g><path d="m220.458 366.474v55.729c0 5.121-4.151 9.272-9.272 9.272h-55.729c-5.121 0-9.272-4.151-9.272-9.272v-55.729c0-5.121 4.151-9.272 9.272-9.272h55.729c5.121.001 9.272 4.152 9.272 9.272z" fill="#e5e1e5"/><g><path d="m188.127 403.189c-4.54 0-8.807-1.768-12.018-4.978l-10.742-10.743c-3.018-3.017-3.018-7.909 0-10.927 3.018-3.016 7.91-3.017 10.927.001l10.742 10.742c.374.373.8.452 1.093.452h.003c.293 0 .721-.08 1.095-.457l28.92-29.127c3.007-3.028 7.898-3.045 10.927-.039 3.028 3.007 3.046 7.898.039 10.927l-28.921 29.128c-3.209 3.23-7.482 5.013-12.034 5.021-.011 0-.021 0-.031 0z" fill="#7acaa6"/></g></g><g><path d="m220.458 261.296v55.729c0 5.121-4.151 9.272-9.272 9.272h-55.729c-5.121 0-9.272-4.151-9.272-9.272v-55.729c0-5.121 4.151-9.272 9.272-9.272h55.729c5.121.001 9.272 4.152 9.272 9.272z" fill="#e5e1e5"/><g><path d="m188.127 298.011c-4.54 0-8.807-1.768-12.018-4.978l-10.742-10.743c-3.018-3.017-3.018-7.909 0-10.927 3.018-3.016 7.91-3.017 10.927.001l10.742 10.742c.374.373.8.452 1.093.452h.003c.293 0 .721-.081 1.095-.457l28.92-29.127c3.007-3.028 7.898-3.045 10.927-.039 3.028 3.007 3.046 7.898.039 10.927l-28.921 29.128c-3.209 3.23-7.482 5.013-12.034 5.021-.011 0-.021 0-.031 0z" fill="#7acaa6"/></g></g><g><path d="m220.458 156.119v55.729c0 5.121-4.151 9.272-9.272 9.272h-55.729c-5.121 0-9.272-4.151-9.272-9.272v-55.729c0-5.121 4.151-9.272 9.272-9.272h55.729c5.121 0 9.272 4.151 9.272 9.272z" fill="#e5e1e5"/><g><path d="m188.127 192.833c-4.54 0-8.807-1.768-12.018-4.978l-10.742-10.743c-3.018-3.017-3.018-7.909 0-10.927 3.018-3.016 7.91-3.017 10.927.001l10.742 10.742c.374.373.8.452 1.093.452h.003c.293 0 .721-.08 1.095-.457l28.92-29.127c3.007-3.028 7.898-3.045 10.927-.039 3.028 3.007 3.046 7.898.039 10.927l-28.921 29.128c-3.209 3.23-7.482 5.013-12.034 5.021-.011 0-.021 0-.031 0z" fill="#7acaa6"/></g></g><g><path d="m365.814 364.93h-110.2c-4.267 0-7.726-3.459-7.726-7.726s3.459-7.726 7.726-7.726h110.2c4.267 0 7.726 3.459 7.726 7.726s-3.459 7.726-7.726 7.726z" fill="#e5e1e5"/></g><g><path d="m319.456 395.835h-63.842c-4.267 0-7.726-3.459-7.726-7.726s3.459-7.726 7.726-7.726h63.842c4.267 0 7.726 3.459 7.726 7.726s-3.459 7.726-7.726 7.726z" fill="#e5e1e5"/></g></g></g></g></svg>